<svg width="20" height="20" viewBox="0 0 20 20" fill="none" xmlns="http://www.w3.org/2000/svg">
<path fill-rule="evenodd" clip-rule="evenodd" d="M10 3.75C11.3508 3.75052 12.6651 4.18866 13.746 4.9988C14.8269 5.80894 15.6162 6.94746 15.9958 8.24385C16.3753 9.54023 16.3247 10.9247 15.8514 12.1899C15.3781 13.455 14.5076 14.5328 13.3704 15.2618C12.2332 15.9908 10.8904 16.3317 9.54317 16.2335C8.19594 16.1352 6.91679 15.6032 5.89731 14.717C4.87782 13.8308 4.17289 12.6382 3.88809 11.3177C3.60328 9.9973 3.75394 8.62013 4.3175 7.3925C4.37884 7.24324 4.38007 7.07605 4.32094 6.9259C4.26181 6.77576 4.1469 6.6543 4.00025 6.58696C3.85361 6.51961 3.6866 6.51159 3.53418 6.56458C3.38176 6.61757 3.25574 6.72746 3.1825 6.87125C2.50626 8.34449 2.32554 9.99716 2.66741 11.5817C3.00928 13.1663 3.85534 14.5974 5.07884 15.6608C6.30235 16.7242 7.83745 17.3625 9.4542 17.4802C11.0709 17.5979 12.6823 17.1886 14.0469 16.3136C15.4115 15.4387 16.4559 14.1452 17.0237 12.6268C17.5914 11.1085 17.652 9.44703 17.1962 7.89139C16.7405 6.33575 15.793 4.96964 14.4956 3.99769C13.1983 3.02574 11.621 2.50028 10 2.5V3.75Z" fill="#F50A8B"/>
<path d="M10 5.58249V0.667486C9.99998 0.608106 9.98304 0.549962 9.95117 0.499862C9.91929 0.449762 9.8738 0.40978 9.82003 0.384597C9.76625 0.359415 9.70642 0.350074 9.64753 0.35767C9.58863 0.365266 9.53313 0.389483 9.4875 0.427486L6.5375 2.88499C6.50233 2.91431 6.47404 2.95101 6.45462 2.99249C6.4352 3.03396 6.42514 3.07919 6.42514 3.12499C6.42514 3.17078 6.4352 3.21601 6.45462 3.25749C6.47404 3.29896 6.50233 3.33566 6.5375 3.36499L9.4875 5.82249C9.53313 5.86049 9.58863 5.88471 9.64753 5.8923C9.70642 5.8999 9.76625 5.89056 9.82003 5.86537C9.8738 5.84019 9.91929 5.80021 9.95117 5.75011C9.98304 5.70001 9.99998 5.64187 10 5.58249Z" fill="#F50A8B"/>
</svg>
